<svg width="80" height="57" viewBox="0 0 80 57" fill="none" xmlns="http://www.w3.org/2000/svg">
<rect width="80" height="57" fill="white"/>
<rect x="5.5" y="5.5" width="69" height="12" stroke="black"/>
<path d="M12.4006 10.6818C12.3707 10.4299 12.2498 10.2344 12.0376 10.0952C11.8255 9.95597 11.5653 9.88636 11.2571 9.88636C11.0317 9.88636 10.8345 9.92282 10.6655 9.99574C10.4981 10.0687 10.3672 10.1689 10.2727 10.2965C10.1799 10.4241 10.1335 10.5691 10.1335 10.7315C10.1335 10.8674 10.1658 10.9843 10.2305 11.082C10.2968 11.1781 10.3813 11.2585 10.484 11.3232C10.5868 11.3861 10.6945 11.4383 10.8072 11.4798C10.9199 11.5195 11.0234 11.5518 11.1179 11.5767L11.6349 11.7159C11.7675 11.7507 11.915 11.7988 12.0774 11.8601C12.2415 11.9214 12.3981 12.0051 12.5472 12.1112C12.698 12.2156 12.8223 12.3498 12.9201 12.5138C13.0179 12.6779 13.0668 12.8793 13.0668 13.1179C13.0668 13.393 12.9947 13.6416 12.8505 13.8636C12.708 14.0857 12.4992 14.2622 12.2241 14.3931C11.9506 14.524 11.6184 14.5895 11.2273 14.5895C10.8627 14.5895 10.547 14.5307 10.2802 14.413C10.015 14.2953 9.80623 14.1313 9.65376 13.9208C9.50296 13.7103 9.41761 13.4659 9.39773 13.1875H10.0341C10.0507 13.3797 10.1153 13.5388 10.228 13.6648C10.3423 13.7891 10.4865 13.8819 10.6605 13.9432C10.8362 14.0028 11.0251 14.0327 11.2273 14.0327C11.4626 14.0327 11.6739 13.9946 11.8612 13.9183C12.0484 13.8404 12.1967 13.7327 12.3061 13.5952C12.4155 13.456 12.4702 13.2936 12.4702 13.108C12.4702 12.9389 12.4229 12.8014 12.3285 12.6953C12.234 12.5893 12.1097 12.5031 11.9556 12.4368C11.8015 12.3705 11.6349 12.3125 11.456 12.2628L10.8295 12.0838C10.4318 11.9695 10.117 11.8062 9.88494 11.5941C9.65294 11.382 9.53693 11.1044 9.53693 10.7614C9.53693 10.4763 9.61399 10.2277 9.76811 10.0156C9.92389 9.80185 10.1327 9.63613 10.3945 9.51847C10.658 9.39915 10.9522 9.33949 11.277 9.33949C11.6051 9.33949 11.8968 9.39832 12.152 9.51598C12.4072 9.63198 12.6094 9.79107 12.7585 9.99325C12.9093 10.1954 12.9889 10.425 12.9972 10.6818H12.4006ZM17.5613 9.40909H18.1777V12.7798C18.1777 13.1278 18.0957 13.4386 17.9316 13.712C17.7692 13.9838 17.5397 14.1984 17.2431 14.3558C16.9464 14.5116 16.5984 14.5895 16.199 14.5895C15.7997 14.5895 15.4516 14.5116 15.155 14.3558C14.8584 14.1984 14.628 13.9838 14.464 13.712C14.3015 13.4386 14.2203 13.1278 14.2203 12.7798V9.40909H14.8368V12.7301C14.8368 12.9787 14.8915 13.1999 15.0009 13.3938C15.1103 13.5861 15.266 13.7377 15.4682 13.8487C15.672 13.9581 15.9157 14.0128 16.199 14.0128C16.4824 14.0128 16.726 13.9581 16.9299 13.8487C17.1337 13.7377 17.2895 13.5861 17.3972 13.3938C17.5066 13.1999 17.5613 12.9787 17.5613 12.7301V9.40909ZM19.5488 9.40909H20.2846L22.0147 13.6349H22.0744L23.8045 9.40909H24.5403V14.5H23.9636V10.6321H23.9139L22.323 14.5H21.7662L20.1752 10.6321H20.1255V14.5H19.5488V9.40909ZM25.9164 9.40909H26.6522L28.3823 13.6349H28.4419L30.172 9.40909H30.9078V14.5H30.3311V10.6321H30.2814L28.6905 14.5H28.1337L26.5428 10.6321H26.4931V14.5H25.9164V9.40909ZM32.4927 14.5H31.8464L33.7157 9.40909H34.3521L36.2214 14.5H35.5751L34.0538 10.2145H34.014L32.4927 14.5ZM32.7313 12.5114H35.3365V13.0582H32.7313V12.5114ZM37.1544 14.5V9.40909H38.8745C39.2723 9.40909 39.5987 9.47704 39.8539 9.61293C40.1092 9.74716 40.2981 9.93194 40.4207 10.1673C40.5433 10.4026 40.6047 10.6702 40.6047 10.9702C40.6047 11.2701 40.5433 11.5361 40.4207 11.7681C40.2981 12.0001 40.11 12.1824 39.8564 12.315C39.6029 12.4459 39.2789 12.5114 38.8845 12.5114H37.4924V11.9545H38.8646C39.1364 11.9545 39.3551 11.9148 39.5208 11.8352C39.6882 11.7557 39.8092 11.643 39.8838 11.4972C39.96 11.3497 39.9981 11.174 39.9981 10.9702C39.9981 10.7663 39.96 10.5882 39.8838 10.4357C39.8075 10.2833 39.6857 10.1656 39.5184 10.0827C39.351 9.99822 39.1297 9.95597 38.8547 9.95597H37.7708V14.5H37.1544ZM39.5507 12.2131L40.8035 14.5H40.0876L38.8547 12.2131H39.5507ZM41.1635 9.40909H41.8695L43.2814 11.7855H43.3411L44.753 9.40909H45.459L43.6195 12.402V14.5H43.003V12.402L41.1635 9.40909Z" fill="black"/>
<path d="M68.1429 11.8571H66V11.1429H68.1429V9H68.8571V11.1429H71V11.8571H68.8571V14H68.1429V11.8571Z" fill="black"/>
<rect x="5.5" y="22.5" width="69" height="12" stroke="black"/>
<path d="M12.4006 27.6818C12.3707 27.4299 12.2498 27.2344 12.0376 27.0952C11.8255 26.956 11.5653 26.8864 11.2571 26.8864C11.0317 26.8864 10.8345 26.9228 10.6655 26.9957C10.4981 27.0687 10.3672 27.1689 10.2727 27.2965C10.1799 27.4241 10.1335 27.5691 10.1335 27.7315C10.1335 27.8674 10.1658 27.9843 10.2305 28.082C10.2968 28.1781 10.3813 28.2585 10.484 28.3232C10.5868 28.3861 10.6945 28.4383 10.8072 28.4798C10.9199 28.5195 11.0234 28.5518 11.1179 28.5767L11.6349 28.7159C11.7675 28.7507 11.915 28.7988 12.0774 28.8601C12.2415 28.9214 12.3981 29.0051 12.5472 29.1112C12.698 29.2156 12.8223 29.3498 12.9201 29.5138C13.0179 29.6779 13.0668 29.8793 13.0668 30.1179C13.0668 30.393 12.9947 30.6416 12.8505 30.8636C12.708 31.0857 12.4992 31.2622 12.2241 31.3931C11.9506 31.524 11.6184 31.5895 11.2273 31.5895C10.8627 31.5895 10.547 31.5307 10.2802 31.413C10.015 31.2953 9.80623 31.1313 9.65376 30.9208C9.50296 30.7103 9.41761 30.4659 9.39773 30.1875H10.0341C10.0507 30.3797 10.1153 30.5388 10.228 30.6648C10.3423 30.7891 10.4865 30.8819 10.6605 30.9432C10.8362 31.0028 11.0251 31.0327 11.2273 31.0327C11.4626 31.0327 11.6739 30.9946 11.8612 30.9183C12.0484 30.8404 12.1967 30.7327 12.3061 30.5952C12.4155 30.456 12.4702 30.2936 12.4702 30.108C12.4702 29.9389 12.4229 29.8014 12.3285 29.6953C12.234 29.5893 12.1097 29.5031 11.9556 29.4368C11.8015 29.3705 11.6349 29.3125 11.456 29.2628L10.8295 29.0838C10.4318 28.9695 10.117 28.8062 9.88494 28.5941C9.65294 28.382 9.53693 28.1044 9.53693 27.7614C9.53693 27.4763 9.61399 27.2277 9.76811 27.0156C9.92389 26.8018 10.1327 26.6361 10.3945 26.5185C10.658 26.3991 10.9522 26.3395 11.277 26.3395C11.6051 26.3395 11.8968 26.3983 12.152 26.516C12.4072 26.632 12.6094 26.7911 12.7585 26.9933C12.9093 27.1954 12.9889 27.425 12.9972 27.6818H12.4006ZM17.5613 26.4091H18.1777V29.7798C18.1777 30.1278 18.0957 30.4386 17.9316 30.712C17.7692 30.9838 17.5397 31.1984 17.2431 31.3558C16.9464 31.5116 16.5984 31.5895 16.199 31.5895C15.7997 31.5895 15.4516 31.5116 15.155 31.3558C14.8584 31.1984 14.628 30.9838 14.464 30.712C14.3015 30.4386 14.2203 30.1278 14.2203 29.7798V26.4091H14.8368V29.7301C14.8368 29.9787 14.8915 30.1999 15.0009 30.3938C15.1103 30.5861 15.266 30.7377 15.4682 30.8487C15.672 30.9581 15.9157 31.0128 16.199 31.0128C16.4824 31.0128 16.726 30.9581 16.9299 30.8487C17.1337 30.7377 17.2895 30.5861 17.3972 30.3938C17.5066 30.1999 17.5613 29.9787 17.5613 29.7301V26.4091ZM19.5488 26.4091H20.2846L22.0147 30.6349H22.0744L23.8045 26.4091H24.5403V31.5H23.9636V27.6321H23.9139L22.323 31.5H21.7662L20.1752 27.6321H20.1255V31.5H19.5488V26.4091ZM25.9164 26.4091H26.6522L28.3823 30.6349H28.4419L30.172 26.4091H30.9078V31.5H30.3311V27.6321H30.2814L28.6905 31.5H28.1337L26.5428 27.6321H26.4931V31.5H25.9164V26.4091ZM32.4927 31.5H31.8464L33.7157 26.4091H34.3521L36.2214 31.5H35.5751L34.0538 27.2145H34.014L32.4927 31.5ZM32.7313 29.5114H35.3365V30.0582H32.7313V29.5114ZM37.1544 31.5V26.4091H38.8745C39.2723 26.4091 39.5987 26.477 39.8539 26.6129C40.1092 26.7472 40.2981 26.9319 40.4207 27.1673C40.5433 27.4026 40.6047 27.6702 40.6047 27.9702C40.6047 28.2701 40.5433 28.5361 40.4207 28.7681C40.2981 29.0001 40.11 29.1824 39.8564 29.315C39.6029 29.4459 39.2789 29.5114 38.8845 29.5114H37.4924V28.9545H38.8646C39.1364 28.9545 39.3551 28.9148 39.5208 28.8352C39.6882 28.7557 39.8092 28.643 39.8838 28.4972C39.96 28.3497 39.9981 28.174 39.9981 27.9702C39.9981 27.7663 39.96 27.5882 39.8838 27.4357C39.8075 27.2833 39.6857 27.1656 39.5184 27.0827C39.351 26.9982 39.1297 26.956 38.8547 26.956H37.7708V31.5H37.1544ZM39.5507 29.2131L40.8035 31.5H40.0876L38.8547 29.2131H39.5507ZM41.1635 26.4091H41.8695L43.2814 28.7855H43.3411L44.753 26.4091H45.459L43.6195 29.402V31.5H43.003V29.402L41.1635 26.4091Z" fill="black"/>
<path d="M68.1429 28.8571H66V28.1429H68.1429V26H68.8571V28.1429H71V28.8571H68.8571V31H68.1429V28.8571Z" fill="black"/>
<rect x="5.5" y="39.5" width="69" height="12" stroke="black"/>
<path d="M12.4006 44.6818C12.3707 44.4299 12.2498 44.2344 12.0376 44.0952C11.8255 43.956 11.5653 43.8864 11.2571 43.8864C11.0317 43.8864 10.8345 43.9228 10.6655 43.9957C10.4981 44.0687 10.3672 44.1689 10.2727 44.2965C10.1799 44.4241 10.1335 44.5691 10.1335 44.7315C10.1335 44.8674 10.1658 44.9843 10.2305 45.082C10.2968 45.1781 10.3813 45.2585 10.484 45.3232C10.5868 45.3861 10.6945 45.4383 10.8072 45.4798C10.9199 45.5195 11.0234 45.5518 11.1179 45.5767L11.6349 45.7159C11.7675 45.7507 11.915 45.7988 12.0774 45.8601C12.2415 45.9214 12.3981 46.0051 12.5472 46.1112C12.698 46.2156 12.8223 46.3498 12.9201 46.5138C13.0179 46.6779 13.0668 46.8793 13.0668 47.1179C13.0668 47.393 12.9947 47.6416 12.8505 47.8636C12.708 48.0857 12.4992 48.2622 12.2241 48.3931C11.9506 48.524 11.6184 48.5895 11.2273 48.5895C10.8627 48.5895 10.547 48.5307 10.2802 48.413C10.015 48.2953 9.80623 48.1313 9.65376 47.9208C9.50296 47.7103 9.41761 47.4659 9.39773 47.1875H10.0341C10.0507 47.3797 10.1153 47.5388 10.228 47.6648C10.3423 47.7891 10.4865 47.8819 10.6605 47.9432C10.8362 48.0028 11.0251 48.0327 11.2273 48.0327C11.4626 48.0327 11.6739 47.9946 11.8612 47.9183C12.0484 47.8404 12.1967 47.7327 12.3061 47.5952C12.4155 47.456 12.4702 47.2936 12.4702 47.108C12.4702 46.9389 12.4229 46.8014 12.3285 46.6953C12.234 46.5893 12.1097 46.5031 11.9556 46.4368C11.8015 46.3705 11.6349 46.3125 11.456 46.2628L10.8295 46.0838C10.4318 45.9695 10.117 45.8062 9.88494 45.5941C9.65294 45.382 9.53693 45.1044 9.53693 44.7614C9.53693 44.4763 9.61399 44.2277 9.76811 44.0156C9.92389 43.8018 10.1327 43.6361 10.3945 43.5185C10.658 43.3991 10.9522 43.3395 11.277 43.3395C11.6051 43.3395 11.8968 43.3983 12.152 43.516C12.4072 43.632 12.6094 43.7911 12.7585 43.9933C12.9093 44.1954 12.9889 44.425 12.9972 44.6818H12.4006ZM17.5613 43.4091H18.1777V46.7798C18.1777 47.1278 18.0957 47.4386 17.9316 47.712C17.7692 47.9838 17.5397 48.1984 17.2431 48.3558C16.9464 48.5116 16.5984 48.5895 16.199 48.5895C15.7997 48.5895 15.4516 48.5116 15.155 48.3558C14.8584 48.1984 14.628 47.9838 14.464 47.712C14.3015 47.4386 14.2203 47.1278 14.2203 46.7798V43.4091H14.8368V46.7301C14.8368 46.9787 14.8915 47.1999 15.0009 47.3938C15.1103 47.5861 15.266 47.7377 15.4682 47.8487C15.672 47.9581 15.9157 48.0128 16.199 48.0128C16.4824 48.0128 16.726 47.9581 16.9299 47.8487C17.1337 47.7377 17.2895 47.5861 17.3972 47.3938C17.5066 47.1999 17.5613 46.9787 17.5613 46.7301V43.4091ZM19.5488 43.4091H20.2846L22.0147 47.6349H22.0744L23.8045 43.4091H24.5403V48.5H23.9636V44.6321H23.9139L22.323 48.5H21.7662L20.1752 44.6321H20.1255V48.5H19.5488V43.4091ZM25.9164 43.4091H26.6522L28.3823 47.6349H28.4419L30.172 43.4091H30.9078V48.5H30.3311V44.6321H30.2814L28.6905 48.5H28.1337L26.5428 44.6321H26.4931V48.5H25.9164V43.4091ZM32.4927 48.5H31.8464L33.7157 43.4091H34.3521L36.2214 48.5H35.5751L34.0538 44.2145H34.014L32.4927 48.5ZM32.7313 46.5114H35.3365V47.0582H32.7313V46.5114ZM37.1544 48.5V43.4091H38.8745C39.2723 43.4091 39.5987 43.477 39.8539 43.6129C40.1092 43.7472 40.2981 43.9319 40.4207 44.1673C40.5433 44.4026 40.6047 44.6702 40.6047 44.9702C40.6047 45.2701 40.5433 45.5361 40.4207 45.7681C40.2981 46.0001 40.11 46.1824 39.8564 46.315C39.6029 46.4459 39.2789 46.5114 38.8845 46.5114H37.4924V45.9545H38.8646C39.1364 45.9545 39.3551 45.9148 39.5208 45.8352C39.6882 45.7557 39.8092 45.643 39.8838 45.4972C39.96 45.3497 39.9981 45.174 39.9981 44.9702C39.9981 44.7663 39.96 44.5882 39.8838 44.4357C39.8075 44.2833 39.6857 44.1656 39.5184 44.0827C39.351 43.9982 39.1297 43.956 38.8547 43.956H37.7708V48.5H37.1544ZM39.5507 46.2131L40.8035 48.5H40.0876L38.8547 46.2131H39.5507ZM41.1635 43.4091H41.8695L43.2814 45.7855H43.3411L44.753 43.4091H45.459L43.6195 46.402V48.5H43.003V46.402L41.1635 43.4091Z" fill="black"/>
<path d="M68.1429 45.8571H66V45.1429H68.1429V43H68.8571V45.1429H71V45.8571H68.8571V48H68.1429V45.8571Z" fill="black"/>
</svg>
