<svg width="80" height="57" viewBox="0 0 80 57" fill="none" xmlns="http://www.w3.org/2000/svg">
<rect width="80" height="57" fill="white"/>
<rect x="11" y="5" width="14" height="4" fill="#888888"/>
<rect x="28.3999" y="8" width="5" height="1" fill="#888888"/>
<rect x="36.8" y="8" width="5" height="1" fill="#888888"/>
<rect x="45.2" y="8" width="5" height="1" fill="#888888"/>
<rect x="53.6001" y="8" width="5" height="1" fill="#888888"/>
<rect x="62" y="8" width="5" height="1" fill="#888888"/>
<rect width="80" height="19" transform="translate(0 14)" fill="black"/>
<path d="M34.7369 29.5C34.3912 29.5 34.0987 29.36 33.8592 29.08C33.6197 28.8 33.5 28.4579 33.5 28.0538V18.9462C33.5 18.5421 33.6197 18.2 33.8592 17.92C34.0987 17.64 34.3912 17.5 34.7369 17.5H45.2631C45.6088 17.5 45.9013 17.64 46.1408 17.92C46.3803 18.2 46.5 18.5421 46.5 18.9462V28.0538C46.5 28.4579 46.3803 28.8 46.1408 29.08C45.9013 29.36 45.6088 29.5 45.2631 29.5H34.7369ZM34.7369 28.3H45.2631C45.3158 28.3 45.364 28.2743 45.4078 28.223C45.4517 28.1718 45.4737 28.1154 45.4737 28.0538V18.9462C45.4737 18.8846 45.4517 18.8282 45.4078 18.777C45.364 18.7257 45.3158 18.7 45.2631 18.7H34.7369C34.6842 18.7 34.636 18.7257 34.5922 18.777C34.5483 18.8282 34.5263 18.8846 34.5263 18.9462V28.0538C34.5263 28.1154 34.5483 28.1718 34.5922 28.223C34.636 28.2743 34.6842 28.3 34.7369 28.3ZM36.4079 26.7H43.6446L41.3948 23.1924L39.4737 26.1154L38.1053 24.0692L36.4079 26.7Z" fill="white"/>
<rect x="11" y="38" width="56" height="1" fill="#888888"/>
<rect x="11" y="42" width="56" height="1" fill="#888888"/>
<rect x="11" y="46" width="56" height="1" fill="#888888"/>
<rect x="11" y="50" width="56" height="1" fill="#888888"/>
</svg>
