<svg width="80" height="57" viewBox="0 0 80 57" fill="none" xmlns="http://www.w3.org/2000/svg">
<rect width="80" height="57" fill="white"/>
<rect x="11" y="5" width="14" height="4" fill="#888888"/>
<rect x="28.3999" y="8" width="5" height="1" fill="#888888"/>
<rect x="36.8" y="8" width="5" height="1" fill="#888888"/>
<rect x="45.2" y="8" width="5" height="1" fill="#888888"/>
<rect x="53.6001" y="8" width="5" height="1" fill="#888888"/>
<rect x="62" y="8" width="5" height="1" fill="#888888"/>
<rect width="80" height="29" transform="translate(0 14)" fill="black"/>
<path d="M33.1175 36C32.6655 36 32.2829 35.825 31.9697 35.475C31.6566 35.125 31.5 34.6974 31.5 34.1923V22.8077C31.5 22.3026 31.6566 21.875 31.9697 21.525C32.2829 21.175 32.6655 21 33.1175 21H46.8825C47.3345 21 47.7171 21.175 48.0303 21.525C48.3434 21.875 48.5 22.3026 48.5 22.8077V34.1923C48.5 34.6974 48.3434 35.125 48.0303 35.475C47.7171 35.825 47.3345 36 46.8825 36H33.1175ZM33.1175 34.5H46.8825C46.9514 34.5 47.0145 34.4679 47.0718 34.4038C47.1292 34.3398 47.1579 34.2692 47.1579 34.1923V22.8077C47.1579 22.7307 47.1292 22.6602 47.0718 22.5962C47.0145 22.5321 46.9514 22.5 46.8825 22.5H33.1175C33.0486 22.5 32.9855 22.5321 32.9282 22.5962C32.8708 22.6602 32.8421 22.7307 32.8421 22.8077V34.1923C32.8421 34.2692 32.8708 34.3398 32.9282 34.4038C32.9855 34.4679 33.0486 34.5 33.1175 34.5ZM35.3026 32.5H44.766L41.8239 28.1155L39.3117 31.7692L37.5223 29.2115L35.3026 32.5Z" fill="white"/>
<rect x="11" y="47" width="56" height="1" fill="#888888"/>
<rect x="11" y="51" width="56" height="1" fill="#888888"/>
</svg>
