<svg width="80" height="57" viewBox="0 0 80 57" fill="none" xmlns="http://www.w3.org/2000/svg">
<rect width="80" height="57" fill="white"/>
<rect x="47" y="5.5" width="25" height="1" fill="#888888"/>
<rect x="47" y="10.5" width="25" height="1" fill="#888888"/>
<rect x="47" y="15.5" width="25" height="1" fill="#888888"/>
<rect x="47" y="20.5" width="25" height="1" fill="#888888"/>
<rect x="47" y="25.5" width="25" height="1" fill="#888888"/>
<rect x="47" y="30.5" width="25" height="1" fill="#888888"/>
<rect x="7" y="35.5" width="65" height="1" fill="#888888"/>
<rect x="7" y="40.5" width="65" height="1" fill="#888888"/>
<rect x="7" y="45.5" width="65" height="1" fill="#888888"/>
<rect x="7" y="50.5" width="65" height="1" fill="#888888"/>
<rect width="34" height="24" transform="translate(7 6)" fill="black"/>
<path d="M24.7734 11.8636L24.6598 20.2273H23.3416L23.228 11.8636H24.7734ZM24.0007 23.5909C23.7204 23.5909 23.4799 23.4905 23.2791 23.2898C23.0784 23.089 22.978 22.8485 22.978 22.5682C22.978 22.2879 23.0784 22.0473 23.2791 21.8466C23.4799 21.6458 23.7204 21.5455 24.0007 21.5455C24.281 21.5455 24.5215 21.6458 24.7223 21.8466C24.9231 22.0473 25.0234 22.2879 25.0234 22.5682C25.0234 22.7538 24.9761 22.9242 24.8814 23.0795C24.7905 23.2348 24.6674 23.3598 24.5121 23.4545C24.3606 23.5455 24.1901 23.5909 24.0007 23.5909Z" fill="white"/>
</svg>
