<svg width="80" height="57" viewBox="0 0 80 57" fill="none" xmlns="http://www.w3.org/2000/svg">
<rect width="80" height="57" fill="white"/>
<rect x="7" y="5.5" width="25" height="1" fill="#888888"/>
<rect x="7" y="10.5" width="25" height="1" fill="#888888"/>
<rect x="7" y="15.5" width="25" height="1" fill="#888888"/>
<rect x="7" y="20.5" width="25" height="1" fill="#888888"/>
<rect x="7" y="25.5" width="25" height="1" fill="#888888"/>
<rect x="7" y="30.5" width="25" height="1" fill="#888888"/>
<rect x="7" y="35.5" width="65" height="1" fill="#888888"/>
<rect x="7" y="40.5" width="65" height="1" fill="#888888"/>
<rect x="7" y="45.5" width="65" height="1" fill="#888888"/>
<rect x="7" y="50.5" width="65" height="1" fill="#888888"/>
<rect width="34" height="24" transform="translate(38 6)" fill="black"/>
<path d="M55.7734 11.8636L55.6598 20.2273H54.3416L54.228 11.8636H55.7734ZM55.0007 23.5909C54.7204 23.5909 54.4799 23.4905 54.2791 23.2898C54.0784 23.089 53.978 22.8485 53.978 22.5682C53.978 22.2879 54.0784 22.0473 54.2791 21.8466C54.4799 21.6458 54.7204 21.5455 55.0007 21.5455C55.281 21.5455 55.5215 21.6458 55.7223 21.8466C55.9231 22.0473 56.0234 22.2879 56.0234 22.5682C56.0234 22.7538 55.9761 22.9242 55.8814 23.0795C55.7905 23.2348 55.6674 23.3598 55.5121 23.4545C55.3606 23.5455 55.1901 23.5909 55.0007 23.5909Z" fill="white"/>
</svg>
