<svg width="80" height="57" viewBox="0 0 80 57" fill="none" xmlns="http://www.w3.org/2000/svg">
<rect width="80" height="57" fill="white"/>
<rect width="48" height="39" transform="translate(16 9)" fill="black"/>
<path d="M30.7221 37.546C30.1128 37.546 29.5971 37.3349 29.175 36.9127C28.7528 36.4906 28.5417 35.9749 28.5417 35.3656V21.6343C28.5417 21.025 28.7528 20.5092 29.175 20.0871C29.5971 19.6649 30.1128 19.4539 30.7221 19.4539H49.278C49.8873 19.4539 50.403 19.6649 50.8252 20.0871C51.2473 20.5092 51.4584 21.025 51.4584 21.6343V35.3656C51.4584 35.9749 51.2473 36.4906 50.8252 36.9127C50.403 37.3349 49.8873 37.546 49.278 37.546H30.7221ZM30.7221 35.7368H49.278C49.3709 35.7368 49.4559 35.6981 49.5331 35.6207C49.6105 35.5435 49.6492 35.4584 49.6492 35.3656V21.6343C49.6492 21.5414 49.6105 21.4564 49.5331 21.3792C49.4559 21.3018 49.3709 21.2631 49.278 21.2631H30.7221C30.6293 21.2631 30.5442 21.3018 30.467 21.3792C30.3897 21.4564 30.351 21.5414 30.351 21.6343V35.3656C30.351 35.4584 30.3897 35.5435 30.467 35.6207C30.5442 35.6981 30.6293 35.7368 30.7221 35.7368ZM33.6678 33.3245H46.4249L42.4588 28.0361L39.0723 32.4431L36.66 29.3581L33.6678 33.3245Z" fill="white"/>
<path d="M11.4038 22.0963L11.4038 34.9038L5.00006 28.5001L11.4038 22.0963Z" fill="#1C1B1F"/>
<path d="M68.5962 34.9037V22.0962L74.9999 28.4999L68.5962 34.9037Z" fill="#1C1B1F"/>
</svg>
