<svg width="80" height="57" viewBox="0 0 80 57" fill="none" xmlns="http://www.w3.org/2000/svg">
<rect width="80" height="57" fill="white"/>
<rect width="20.9167" height="20.1974" transform="translate(4.625 6.30273)" fill="black"/>
<path d="M9.85395 21.5001C9.51053 21.5001 9.21985 21.3811 8.98191 21.1432C8.74397 20.9053 8.625 20.6146 8.625 20.2711V12.5317C8.625 12.1883 8.74397 11.8976 8.98191 11.6596C9.21985 11.4217 9.51053 11.3027 9.85395 11.3027H20.3127C20.6561 11.3027 20.9468 11.4217 21.1848 11.6596C21.4227 11.8976 21.5417 12.1883 21.5417 12.5317V20.2711C21.5417 20.6146 21.4227 20.9053 21.1848 21.1432C20.9468 21.3811 20.6561 21.5001 20.3127 21.5001H9.85395ZM9.85395 20.4804H20.3127C20.3651 20.4804 20.413 20.4586 20.4565 20.4149C20.5001 20.3714 20.5219 20.3235 20.5219 20.2711V12.5317C20.5219 12.4793 20.5001 12.4314 20.4565 12.3879C20.413 12.3443 20.3651 12.3225 20.3127 12.3225H9.85395C9.80161 12.3225 9.75368 12.3443 9.71017 12.3879C9.66655 12.4314 9.64474 12.4793 9.64474 12.5317V20.2711C9.64474 20.3235 9.66655 20.3714 9.71017 20.4149C9.75368 20.4586 9.80161 20.4804 9.85395 20.4804ZM11.5143 19.1207H18.7046L16.4692 16.14L14.5604 18.6239L13.2007 16.8851L11.5143 19.1207Z" fill="white"/>
<rect width="20.9167" height="20.1974" transform="translate(29.5417 6.30273)" fill="black"/>
<path d="M34.7707 21.5001C34.4273 21.5001 34.1366 21.3811 33.8987 21.1432C33.6607 20.9053 33.5417 20.6146 33.5417 20.2711V12.5317C33.5417 12.1883 33.6607 11.8976 33.8987 11.6596C34.1366 11.4217 34.4273 11.3027 34.7707 11.3027H45.2295C45.5729 11.3027 45.8636 11.4217 46.1015 11.6596C46.3394 11.8976 46.4584 12.1883 46.4584 12.5317V20.2711C46.4584 20.6146 46.3394 20.9053 46.1015 21.1432C45.8636 21.3811 45.5729 21.5001 45.2295 21.5001H34.7707ZM34.7707 20.4804H45.2295C45.2818 20.4804 45.3297 20.4586 45.3732 20.4149C45.4169 20.3714 45.4387 20.3235 45.4387 20.2711V12.5317C45.4387 12.4793 45.4169 12.4314 45.3732 12.3879C45.3297 12.3443 45.2818 12.3225 45.2295 12.3225H34.7707C34.7184 12.3225 34.6704 12.3443 34.6269 12.3879C34.5833 12.4314 34.5615 12.4793 34.5615 12.5317V20.2711C34.5615 20.3235 34.5833 20.3714 34.6269 20.4149C34.6704 20.4586 34.7184 20.4804 34.7707 20.4804ZM36.431 19.1207H43.6213L41.3859 16.14L39.4771 18.6239L38.1175 16.8851L36.431 19.1207Z" fill="white"/>
<rect width="20.9167" height="20.1974" transform="translate(54.4583 6.30273)" fill="black"/>
<path d="M59.6872 21.5001C59.3438 21.5001 59.0531 21.3811 58.8152 21.1432C58.5772 20.9053 58.4583 20.6146 58.4583 20.2711V12.5317C58.4583 12.1883 58.5772 11.8976 58.8152 11.6596C59.0531 11.4217 59.3438 11.3027 59.6872 11.3027H70.146C70.4894 11.3027 70.7801 11.4217 71.018 11.6596C71.2559 11.8976 71.3749 12.1883 71.3749 12.5317V20.2711C71.3749 20.6146 71.2559 20.9053 71.018 21.1432C70.7801 21.3811 70.4894 21.5001 70.146 21.5001H59.6872ZM59.6872 20.4804H70.146C70.1983 20.4804 70.2462 20.4586 70.2897 20.4149C70.3334 20.3714 70.3552 20.3235 70.3552 20.2711V12.5317C70.3552 12.4793 70.3334 12.4314 70.2897 12.3879C70.2462 12.3443 70.1983 12.3225 70.146 12.3225H59.6872C59.6349 12.3225 59.5869 12.3443 59.5434 12.3879C59.4998 12.4314 59.478 12.4793 59.478 12.5317V20.2711C59.478 20.3235 59.4998 20.3714 59.5434 20.4149C59.5869 20.4586 59.6349 20.4804 59.6872 20.4804ZM61.3475 19.1207H68.5378L66.3024 16.14L64.3936 18.6239L63.034 16.8851L61.3475 19.1207Z" fill="white"/>
<rect width="20.9167" height="20.1974" transform="translate(4.625 30.5)" fill="black"/>
<path d="M9.85395 45.6974C9.51053 45.6974 9.21985 45.5784 8.98191 45.3405C8.74397 45.1025 8.625 44.8118 8.625 44.4684V36.729C8.625 36.3855 8.74397 36.0948 8.98191 35.8569C9.21985 35.619 9.51053 35.5 9.85395 35.5H20.3127C20.6561 35.5 20.9468 35.619 21.1848 35.8569C21.4227 36.0948 21.5417 36.3855 21.5417 36.729V44.4684C21.5417 44.8118 21.4227 45.1025 21.1848 45.3405C20.9468 45.5784 20.6561 45.6974 20.3127 45.6974H9.85395ZM9.85395 44.6776H20.3127C20.3651 44.6776 20.413 44.6558 20.4565 44.6122C20.5001 44.5687 20.5219 44.5208 20.5219 44.4684V36.729C20.5219 36.6766 20.5001 36.6287 20.4565 36.5852C20.413 36.5415 20.3651 36.5197 20.3127 36.5197H9.85395C9.80161 36.5197 9.75368 36.5415 9.71017 36.5852C9.66655 36.6287 9.64474 36.6766 9.64474 36.729V44.4684C9.64474 44.5208 9.66655 44.5687 9.71017 44.6122C9.75368 44.6558 9.80161 44.6776 9.85395 44.6776ZM11.5143 43.318H18.7046L16.4692 40.3373L14.5604 42.8212L13.2007 41.0824L11.5143 43.318Z" fill="white"/>
<rect width="20.9167" height="20.1974" transform="translate(29.5417 30.5)" fill="black"/>
<path d="M34.7707 45.6974C34.4273 45.6974 34.1366 45.5784 33.8987 45.3405C33.6607 45.1025 33.5417 44.8118 33.5417 44.4684V36.729C33.5417 36.3855 33.6607 36.0948 33.8987 35.8569C34.1366 35.619 34.4273 35.5 34.7707 35.5H45.2295C45.5729 35.5 45.8636 35.619 46.1015 35.8569C46.3394 36.0948 46.4584 36.3855 46.4584 36.729V44.4684C46.4584 44.8118 46.3394 45.1025 46.1015 45.3405C45.8636 45.5784 45.5729 45.6974 45.2295 45.6974H34.7707ZM34.7707 44.6776H45.2295C45.2818 44.6776 45.3297 44.6558 45.3732 44.6122C45.4169 44.5687 45.4387 44.5208 45.4387 44.4684V36.729C45.4387 36.6766 45.4169 36.6287 45.3732 36.5852C45.3297 36.5415 45.2818 36.5197 45.2295 36.5197H34.7707C34.7184 36.5197 34.6704 36.5415 34.6269 36.5852C34.5833 36.6287 34.5615 36.6766 34.5615 36.729V44.4684C34.5615 44.5208 34.5833 44.5687 34.6269 44.6122C34.6704 44.6558 34.7184 44.6776 34.7707 44.6776ZM36.431 43.318H43.6213L41.3859 40.3373L39.4771 42.8212L38.1175 41.0824L36.431 43.318Z" fill="white"/>
<rect width="20.9167" height="20.1974" transform="translate(54.4583 30.5)" fill="black"/>
<path d="M59.6872 45.6974C59.3438 45.6974 59.0531 45.5784 58.8152 45.3405C58.5772 45.1025 58.4583 44.8118 58.4583 44.4684V36.729C58.4583 36.3855 58.5772 36.0948 58.8152 35.8569C59.0531 35.619 59.3438 35.5 59.6872 35.5H70.146C70.4894 35.5 70.7801 35.619 71.018 35.8569C71.2559 36.0948 71.3749 36.3855 71.3749 36.729V44.4684C71.3749 44.8118 71.2559 45.1025 71.018 45.3405C70.7801 45.5784 70.4894 45.6974 70.146 45.6974H59.6872ZM59.6872 44.6776H70.146C70.1983 44.6776 70.2462 44.6558 70.2897 44.6122C70.3334 44.5687 70.3552 44.5208 70.3552 44.4684V36.729C70.3552 36.6766 70.3334 36.6287 70.2897 36.5852C70.2462 36.5415 70.1983 36.5197 70.146 36.5197H59.6872C59.6349 36.5197 59.5869 36.5415 59.5434 36.5852C59.4998 36.6287 59.478 36.6766 59.478 36.729V44.4684C59.478 44.5208 59.4998 44.5687 59.5434 44.6122C59.5869 44.6558 59.6349 44.6776 59.6872 44.6776ZM61.3475 43.318H68.5378L66.3024 40.3373L64.3936 42.8212L63.034 41.0824L61.3475 43.318Z" fill="white"/>
</svg>
