<svg width="80" height="57" viewBox="0 0 80 57" fill="none" xmlns="http://www.w3.org/2000/svg">
<rect width="80" height="57" fill="white"/>
<rect width="70" height="31" transform="translate(5 13)" fill="#D1D1D1"/>
<path d="M30.2835 38C29.6454 38 29.1053 37.7783 28.6632 37.335C28.2211 36.8917 28 36.3501 28 35.7102V21.2898C28 20.6499 28.2211 20.1083 28.6632 19.665C29.1053 19.2217 29.6454 19 30.2835 19H49.7165C50.3546 19 50.8947 19.2217 51.3368 19.665C51.7789 20.1083 52 20.6499 52 21.2898V35.7102C52 36.3501 51.7789 36.8917 51.3368 37.335C50.8947 37.7783 50.3546 38 49.7165 38H30.2835ZM30.2835 36.1H49.7165C49.8138 36.1 49.9028 36.0594 49.9837 35.9781C50.0647 35.897 50.1053 35.8077 50.1053 35.7102V21.2898C50.1053 21.1923 50.0647 21.103 49.9837 21.0219C49.9028 20.9406 49.8138 20.9 49.7165 20.9H30.2835C30.1862 20.9 30.0972 20.9406 30.0163 21.0219C29.9353 21.103 29.8947 21.1923 29.8947 21.2898V35.7102C29.8947 35.8077 29.9353 35.897 30.0163 35.9781C30.0972 36.0594 30.1862 36.1 30.2835 36.1ZM33.3684 33.5667H46.7285L42.5749 28.013L39.0283 32.641L36.502 29.4012L33.3684 33.5667Z" fill="#888888"/>
<rect width="24.5833" height="25.8125" transform="translate(9 16)" fill="black" fill-opacity="0.85"/>
<rect x="13.7915" y="24.4062" width="15" height="1" fill="#C9C9C9"/>
<rect x="13.7915" y="28.4062" width="15" height="1" fill="#C9C9C9"/>
<rect x="13.7915" y="32.4062" width="15" height="1" fill="#C9C9C9"/>
</svg>
