<svg width="80" height="57" viewBox="0 0 80 57" fill="none" xmlns="http://www.w3.org/2000/svg">
<rect width="80" height="57" fill="white"/>
<rect width="70" height="31" transform="translate(5 13)" fill="#D1D1D1"/>
<path d="M29.3786 38C28.7139 38 28.1513 37.7783 27.6908 37.335C27.2303 36.8917 27 36.3501 27 35.7102V21.2898C27 20.6499 27.2303 20.1083 27.6908 19.665C28.1513 19.2217 28.7139 19 29.3786 19H49.6214C50.2861 19 50.8487 19.2217 51.3092 19.665C51.7697 20.1083 52 20.6499 52 21.2898V35.7102C52 36.3501 51.7697 36.8917 51.3092 37.335C50.8487 37.7783 50.2861 38 49.6214 38H29.3786ZM29.3786 36.1H49.6214C49.7227 36.1 49.8155 36.0594 49.8997 35.9781C49.9841 35.897 50.0263 35.8077 50.0263 35.7102V21.2898C50.0263 21.1923 49.9841 21.103 49.8997 21.0219C49.8155 20.9406 49.7227 20.9 49.6214 20.9H29.3786C29.2773 20.9 29.1845 20.9406 29.1003 21.0219C29.0159 21.103 28.9737 21.1923 28.9737 21.2898V35.7102C28.9737 35.8077 29.0159 35.897 29.1003 35.9781C29.1845 36.0594 29.2773 36.1 29.3786 36.1ZM32.5921 33.5667H46.5089L42.1822 28.013L38.4878 32.641L35.8563 29.4012L32.5921 33.5667Z" fill="#888888"/>
<rect width="24.5833" height="25.8125" transform="translate(46 16)" fill="black" fill-opacity="0.85"/>
<rect x="50.7915" y="24.4062" width="15" height="1" fill="#C9C9C9"/>
<rect x="50.7915" y="28.4062" width="15" height="1" fill="#C9C9C9"/>
<rect x="50.7915" y="32.4062" width="15" height="1" fill="#C9C9C9"/>
</svg>
