<svg width="80" height="57" viewBox="0 0 80 57" fill="none" xmlns="http://www.w3.org/2000/svg">
<g clip-path="url(#clip0_201_1313)">
<path d="M80 0H0V57H80V0Z" fill="white"/>
<rect x="6.5" y="7.5" width="66" height="43" stroke="#888888"/>
<rect x="18" y="12" width="14" height="4" fill="#888888"/>
<rect x="34.5" y="15" width="5" height="1" fill="#888888"/>
<rect x="42" y="15" width="5" height="1" fill="#888888"/>
<rect x="49.5" y="15" width="5" height="1" fill="#888888"/>
<rect x="57" y="15" width="5" height="1" fill="#888888"/>
<rect width="44" height="20" transform="translate(18 22)" fill="black"/>
<rect width="12" height="15" transform="translate(19 24.5)" fill="#D1D1D1"/>
<rect width="10" height="7" transform="translate(20 26)" fill="black"/>
<path d="M24.1903 30.5C24.1371 30.5 24.0921 30.4767 24.0553 30.43C24.0184 30.3833 24 30.3263 24 30.259V28.741C24 28.6737 24.0184 28.6167 24.0553 28.57C24.0921 28.5233 24.1371 28.5 24.1903 28.5H25.8097C25.8629 28.5 25.9079 28.5233 25.9447 28.57C25.9816 28.6167 26 28.6737 26 28.741V30.259C26 30.3263 25.9816 30.3833 25.9447 30.43C25.9079 30.4767 25.8629 30.5 25.8097 30.5H24.1903ZM24.1903 30.3H25.8097C25.8178 30.3 25.8252 30.2957 25.832 30.2872C25.8387 30.2786 25.8421 30.2692 25.8421 30.259V28.741C25.8421 28.7308 25.8387 28.7214 25.832 28.7128C25.8252 28.7043 25.8178 28.7 25.8097 28.7H24.1903C24.1822 28.7 24.1748 28.7043 24.168 28.7128C24.1613 28.7214 24.1579 28.7308 24.1579 28.741V30.259C24.1579 30.2692 24.1613 30.2786 24.168 30.2872C24.1748 30.2957 24.1822 30.3 24.1903 30.3ZM24.4474 30.0333H25.5607L25.2146 29.4487L24.919 29.9359L24.7085 29.5949L24.4474 30.0333Z" fill="white"/>
<rect x="20.5" y="34" width="9" height="0.25" fill="black"/>
<rect x="20.5" y="35.25" width="9" height="0.25" fill="black"/>
<rect x="20.5" y="36.5" width="9" height="0.25" fill="black"/>
<rect x="20.5" y="37.75" width="9" height="0.25" fill="black"/>
<rect width="12" height="15" transform="translate(34 24.5)" fill="#D1D1D1"/>
<rect width="10" height="7" transform="translate(35 26)" fill="black"/>
<path d="M39.1903 30.5C39.1371 30.5 39.0921 30.4767 39.0553 30.43C39.0184 30.3833 39 30.3263 39 30.259V28.741C39 28.6737 39.0184 28.6167 39.0553 28.57C39.0921 28.5233 39.1371 28.5 39.1903 28.5H40.8097C40.8629 28.5 40.9079 28.5233 40.9447 28.57C40.9816 28.6167 41 28.6737 41 28.741V30.259C41 30.3263 40.9816 30.3833 40.9447 30.43C40.9079 30.4767 40.8629 30.5 40.8097 30.5H39.1903ZM39.1903 30.3H40.8097C40.8178 30.3 40.8252 30.2957 40.832 30.2872C40.8387 30.2786 40.8421 30.2692 40.8421 30.259V28.741C40.8421 28.7308 40.8387 28.7214 40.832 28.7128C40.8252 28.7043 40.8178 28.7 40.8097 28.7H39.1903C39.1822 28.7 39.1748 28.7043 39.168 28.7128C39.1613 28.7214 39.1579 28.7308 39.1579 28.741V30.259C39.1579 30.2692 39.1613 30.2786 39.168 30.2872C39.1748 30.2957 39.1822 30.3 39.1903 30.3ZM39.4474 30.0333H40.5607L40.2146 29.4487L39.919 29.9359L39.7085 29.5949L39.4474 30.0333Z" fill="white"/>
<rect x="35.5" y="34" width="9" height="0.25" fill="black"/>
<rect x="35.5" y="35.25" width="9" height="0.25" fill="black"/>
<rect x="35.5" y="36.5" width="9" height="0.25" fill="black"/>
<rect x="35.5" y="37.75" width="9" height="0.25" fill="black"/>
<rect width="12" height="15" transform="translate(49 24.5)" fill="#D1D1D1"/>
<rect width="10" height="7" transform="translate(50 26)" fill="black"/>
<path d="M54.1903 30.5C54.1371 30.5 54.0921 30.4767 54.0553 30.43C54.0184 30.3833 54 30.3263 54 30.259V28.741C54 28.6737 54.0184 28.6167 54.0553 28.57C54.0921 28.5233 54.1371 28.5 54.1903 28.5H55.8097C55.8629 28.5 55.9079 28.5233 55.9447 28.57C55.9816 28.6167 56 28.6737 56 28.741V30.259C56 30.3263 55.9816 30.3833 55.9447 30.43C55.9079 30.4767 55.8629 30.5 55.8097 30.5H54.1903ZM54.1903 30.3H55.8097C55.8178 30.3 55.8252 30.2957 55.832 30.2872C55.8387 30.2786 55.8421 30.2692 55.8421 30.259V28.741C55.8421 28.7308 55.8387 28.7214 55.832 28.7128C55.8252 28.7043 55.8178 28.7 55.8097 28.7H54.1903C54.1822 28.7 54.1748 28.7043 54.168 28.7128C54.1613 28.7214 54.1579 28.7308 54.1579 28.741V30.259C54.1579 30.2692 54.1613 30.2786 54.168 30.2872C54.1748 30.2957 54.1822 30.3 54.1903 30.3ZM54.4474 30.0333H55.5607L55.2146 29.4487L54.919 29.9359L54.7085 29.5949L54.4474 30.0333Z" fill="white"/>
<rect x="50.5" y="34" width="9" height="0.25" fill="black"/>
<rect x="50.5" y="35.25" width="9" height="0.25" fill="black"/>
<rect x="50.5" y="36.5" width="9" height="0.25" fill="black"/>
<rect x="50.5" y="37.75" width="9" height="0.25" fill="black"/>
<rect x="18" y="19" width="44" height="1" fill="#888888"/>
<rect x="18" y="44" width="44" height="1" fill="#888888"/>
<rect x="18" y="47" width="44" height="1" fill="#888888"/>
</g>
<defs>
<clipPath id="clip0_201_1313">
<rect width="80" height="57" fill="white"/>
</clipPath>
</defs>
</svg>
