<svg width="80" height="57" viewBox="0 0 80 57" fill="none" xmlns="http://www.w3.org/2000/svg">
<rect width="80" height="57" fill="white"/>
<mask id="path-1-outside-1_9742_6307" maskUnits="userSpaceOnUse" x="15.5" y="3" width="49" height="51" fill="black">
<rect fill="white" x="15.5" y="3" width="49" height="51"/>
<path d="M15.5 3H64.5V52H15.5V3Z"/>
</mask>
<path d="M15.5 3H64.5V52H15.5V3Z" fill="#D1D1D1"/>
<path d="M64.5 52V50H15.5V52V54H64.5V52Z" fill="black" mask="url(#path-1-outside-1_9742_6307)"/>
<rect width="41" height="24.221" transform="translate(19.5 7)" fill="black"/>
<path d="M33.5223 25.6106C33.0969 25.6106 32.7368 25.4589 32.4421 25.1556C32.1474 24.8523 32 24.4817 32 24.0439V14.1773C32 13.7395 32.1474 13.3689 32.4421 13.0656C32.7368 12.7623 33.0969 12.6106 33.5223 12.6106H46.4777C46.9031 12.6106 47.2632 12.7623 47.5579 13.0656C47.8526 13.3689 48 13.7395 48 14.1773V24.0439C48 24.4817 47.8526 24.8523 47.5579 25.1556C47.2632 25.4589 46.9031 25.6106 46.4777 25.6106H33.5223ZM33.5223 24.3106H46.4777C46.5425 24.3106 46.6019 24.2828 46.6558 24.2272C46.7098 24.1717 46.7368 24.1106 46.7368 24.0439V14.1773C46.7368 14.1106 46.7098 14.0495 46.6558 13.994C46.6019 13.9384 46.5425 13.9106 46.4777 13.9106H33.5223C33.4575 13.9106 33.3981 13.9384 33.3442 13.994C33.2902 14.0495 33.2632 14.1106 33.2632 14.1773V24.0439C33.2632 24.1106 33.2902 24.1717 33.3442 24.2272C33.3981 24.2828 33.4575 24.3106 33.5223 24.3106ZM35.5789 22.5773H44.4857L41.7166 18.7774L39.3522 21.9439L37.668 19.7272L35.5789 22.5773Z" fill="white"/>
<rect x="19.5" y="36.1104" width="31" height="1" fill="black"/>
<path d="M49.0697 38.9999L51.4592 36.6104L49.0697 34.2209L48.5 34.7907L50.3198 36.6104L48.5 38.4302L49.0697 38.9999Z" fill="#1C1B1F"/>
<rect x="19.5" y="42" width="41" height="1" fill="black"/>
<rect x="19.5" y="47" width="41" height="1" fill="black"/>
</svg>
