<svg width="80" height="57" viewBox="0 0 80 57" fill="none" xmlns="http://www.w3.org/2000/svg">
<rect width="80" height="57" fill="white"/>
<rect width="54" height="49" transform="translate(13 4)" fill="#D1D1D1"/>
<rect width="46" height="24.221" transform="translate(17 8)" fill="black"/>
<path d="M33.5223 26.6106C33.0969 26.6106 32.7368 26.4589 32.4421 26.1556C32.1474 25.8523 32 25.4817 32 25.0439V15.1773C32 14.7395 32.1474 14.3689 32.4421 14.0656C32.7368 13.7623 33.0969 13.6106 33.5223 13.6106H46.4777C46.9031 13.6106 47.2632 13.7623 47.5579 14.0656C47.8526 14.3689 48 14.7395 48 15.1773V25.0439C48 25.4817 47.8526 25.8523 47.5579 26.1556C47.2632 26.4589 46.9031 26.6106 46.4777 26.6106H33.5223ZM33.5223 25.3106H46.4777C46.5425 25.3106 46.6019 25.2828 46.6558 25.2272C46.7098 25.1717 46.7368 25.1106 46.7368 25.0439V15.1773C46.7368 15.1106 46.7098 15.0495 46.6558 14.994C46.6019 14.9384 46.5425 14.9106 46.4777 14.9106H33.5223C33.4575 14.9106 33.3981 14.9384 33.3442 14.994C33.2902 15.0495 33.2632 15.1106 33.2632 15.1773V25.0439C33.2632 25.1106 33.2902 25.1717 33.3442 25.2272C33.3981 25.2828 33.4575 25.3106 33.5223 25.3106ZM35.5789 23.5773H44.4857L41.7166 19.7774L39.3522 22.9439L37.668 20.7272L35.5789 23.5773Z" fill="white"/>
<rect x="17" y="37.1104" width="31" height="1" fill="black"/>
<path d="M46.5697 39.9999L48.9592 37.6104L46.5697 35.2209L46 35.7907L47.8198 37.6104L46 39.4302L46.5697 39.9999Z" fill="#1C1B1F"/>
<rect x="17" y="43" width="46" height="1" fill="black"/>
<rect x="17" y="48" width="46" height="1" fill="black"/>
</svg>
