<svg width="80" height="57" viewBox="0 0 80 57" fill="none" xmlns="http://www.w3.org/2000/svg">
<rect width="80" height="57" fill="white"/>
<rect x="17.5" y="4" width="45" height="49" fill="#D1D1D1"/>
<rect x="17.5" y="4" width="45" height="49" stroke="black"/>
<rect width="40" height="23" transform="translate(20 7)" fill="black"/>
<path d="M33.1175 25C32.6655 25 32.2829 24.8483 31.9697 24.545C31.6566 24.2417 31.5 23.8711 31.5 23.4333V13.5667C31.5 13.1289 31.6566 12.7583 31.9697 12.455C32.2829 12.1517 32.6655 12 33.1175 12H46.8825C47.3345 12 47.7171 12.1517 48.0303 12.455C48.3434 12.7583 48.5 13.1289 48.5 13.5667V23.4333C48.5 23.8711 48.3434 24.2417 48.0303 24.545C47.7171 24.8483 47.3345 25 46.8825 25H33.1175ZM33.1175 23.7H46.8825C46.9514 23.7 47.0145 23.6722 47.0718 23.6166C47.1292 23.5611 47.1579 23.5 47.1579 23.4333V13.5667C47.1579 13.5 47.1292 13.4389 47.0718 13.3834C47.0145 13.3278 46.9514 13.3 46.8825 13.3H33.1175C33.0486 13.3 32.9855 13.3278 32.9282 13.3834C32.8708 13.4389 32.8421 13.5 32.8421 13.5667V23.4333C32.8421 23.5 32.8708 23.5611 32.9282 23.6166C32.9855 23.6722 33.0486 23.7 33.1175 23.7ZM35.3026 21.9667H44.766L41.8239 18.1668L39.3117 21.3334L37.5223 19.1166L35.3026 21.9667Z" fill="white"/>
<rect x="20" y="34" width="40" height="1" fill="black"/>
<rect x="20" y="38" width="40" height="1" fill="black"/>
<rect x="20" y="42" width="40" height="1" fill="black"/>
<rect x="17.5" y="47" width="45" height="1" fill="black"/>
</svg>
