<svg width="80" height="57" viewBox="0 0 80 57" fill="none" xmlns="http://www.w3.org/2000/svg">
<rect width="80" height="57" fill="white"/>
<rect width="45" height="28" transform="translate(17.5 2.5)" fill="black"/>
<path d="M33.1175 21.5C32.6655 21.5 32.2829 21.3483 31.9697 21.045C31.6566 20.7417 31.5 20.3711 31.5 19.9333V10.0667C31.5 9.62891 31.6566 9.25833 31.9697 8.955C32.2829 8.65167 32.6655 8.5 33.1175 8.5H46.8825C47.3345 8.5 47.7171 8.65167 48.0303 8.955C48.3434 9.25833 48.5 9.62891 48.5 10.0667V19.9333C48.5 20.3711 48.3434 20.7417 48.0303 21.045C47.7171 21.3483 47.3345 21.5 46.8825 21.5H33.1175ZM33.1175 20.2H46.8825C46.9514 20.2 47.0145 20.1722 47.0718 20.1166C47.1292 20.0611 47.1579 20 47.1579 19.9333V10.0667C47.1579 9.99998 47.1292 9.93888 47.0718 9.88342C47.0145 9.82781 46.9514 9.8 46.8825 9.8H33.1175C33.0486 9.8 32.9855 9.82781 32.9282 9.88342C32.8708 9.93888 32.8421 9.99998 32.8421 10.0667V19.9333C32.8421 20 32.8708 20.0611 32.9282 20.1166C32.9855 20.1722 33.0486 20.2 33.1175 20.2ZM35.3026 18.4667H44.766L41.8239 14.6668L39.3117 17.8334L37.5223 15.6166L35.3026 18.4667Z" fill="white"/>
<rect width="45" height="22" transform="translate(17.5 32.5)" fill="#D1D1D1"/>
<rect x="24" y="40.5" width="32" height="1" fill="black"/>
<rect x="24" y="44.5" width="32" height="1" fill="black"/>
<rect x="24" y="48.5" width="32" height="1" fill="black"/>
<rect width="45" height="10" transform="translate(17.5 26.5)" fill="#757575"/>
<rect x="20.5" y="31" width="25" height="1" fill="white"/>
<path d="M44.0697 33.8903L46.4592 31.5008L44.0697 29.1113L43.5 29.681L45.3198 31.5008L43.5 33.3206L44.0697 33.8903Z" fill="white"/>
</svg>
