<svg width="80" height="57" viewBox="0 0 80 57" fill="none" xmlns="http://www.w3.org/2000/svg">
<rect width="80" height="57" fill="white"/>
<rect width="70" height="34" transform="translate(5 11.5)" fill="#D1D1D1"/>
<rect width="33" height="26" transform="translate(9 15.5)" fill="black"/>
<path d="M19.0223 35C18.5969 35 18.2368 34.8483 17.9421 34.545C17.6474 34.2417 17.5 33.8711 17.5 33.4333V23.5667C17.5 23.1289 17.6474 22.7583 17.9421 22.455C18.2368 22.1517 18.5969 22 19.0223 22H31.9777C32.4031 22 32.7632 22.1517 33.0579 22.455C33.3526 22.7583 33.5 23.1289 33.5 23.5667V33.4333C33.5 33.8711 33.3526 34.2417 33.0579 34.545C32.7632 34.8483 32.4031 35 31.9777 35H19.0223ZM19.0223 33.7H31.9777C32.0425 33.7 32.1019 33.6722 32.1558 33.6166C32.2098 33.5611 32.2368 33.5 32.2368 33.4333V23.5667C32.2368 23.5 32.2098 23.4389 32.1558 23.3834C32.1019 23.3278 32.0425 23.3 31.9777 23.3H19.0223C18.9575 23.3 18.8981 23.3278 18.8442 23.3834C18.7902 23.4389 18.7632 23.5 18.7632 23.5667V33.4333C18.7632 33.5 18.7902 33.5611 18.8442 33.6166C18.8981 33.6722 18.9575 33.7 19.0223 33.7ZM21.0789 31.9667H29.9857L27.2166 28.1668L24.8522 31.3334L23.168 29.1166L21.0789 31.9667Z" fill="white"/>
<rect x="46" y="20.1106" width="25" height="1" fill="black"/>
<rect x="46" y="24.1106" width="25" height="1" fill="black"/>
<rect x="46" y="28.1106" width="25" height="1" fill="black"/>
<rect x="46" y="34" width="12" height="1" fill="black"/>
<path d="M56.5697 36.8896L58.9592 34.5001L56.5697 32.1106L56 32.6803L57.8198 34.5001L56 36.3199L56.5697 36.8896Z" fill="#1C1B1F"/>
</svg>
