<svg width="80" height="57" viewBox="0 0 80 57" fill="none" xmlns="http://www.w3.org/2000/svg">
<rect width="80" height="57" fill="white"/>
<rect width="70" height="34" transform="translate(5 11.5)" fill="#D1D1D1"/>
<rect width="37" height="34" transform="translate(5 11.5)" fill="black"/>
<path d="M17.0223 35C16.5969 35 16.2368 34.8483 15.9421 34.545C15.6474 34.2417 15.5 33.8711 15.5 33.4333V23.5667C15.5 23.1289 15.6474 22.7583 15.9421 22.455C16.2368 22.1517 16.5969 22 17.0223 22H29.9777C30.4031 22 30.7632 22.1517 31.0579 22.455C31.3526 22.7583 31.5 23.1289 31.5 23.5667V33.4333C31.5 33.8711 31.3526 34.2417 31.0579 34.545C30.7632 34.8483 30.4031 35 29.9777 35H17.0223ZM17.0223 33.7H29.9777C30.0425 33.7 30.1019 33.6722 30.1558 33.6166C30.2098 33.5611 30.2368 33.5 30.2368 33.4333V23.5667C30.2368 23.5 30.2098 23.4389 30.1558 23.3834C30.1019 23.3278 30.0425 23.3 29.9777 23.3H17.0223C16.9575 23.3 16.8981 23.3278 16.8442 23.3834C16.7902 23.4389 16.7632 23.5 16.7632 23.5667V33.4333C16.7632 33.5 16.7902 33.5611 16.8442 33.6166C16.8981 33.6722 16.9575 33.7 17.0223 33.7ZM19.0789 31.9667H27.9857L25.2166 28.1668L22.8522 31.3334L21.168 29.1166L19.0789 31.9667Z" fill="white"/>
<rect x="46" y="20.1113" width="25" height="1" fill="black"/>
<rect x="46" y="24.1113" width="25" height="1" fill="black"/>
<rect x="46" y="28.1113" width="25" height="1" fill="black"/>
<rect x="46" y="34" width="12" height="1" fill="black"/>
<path d="M56.5697 36.8903L58.9592 34.5008L56.5697 32.1113L56 32.681L57.8198 34.5008L56 36.3206L56.5697 36.8903Z" fill="#1C1B1F"/>
</svg>
