<svg width="80" height="57" viewBox="0 0 80 57" fill="none" xmlns="http://www.w3.org/2000/svg">
<rect width="80" height="57" fill="white"/>
<rect width="45" height="49" transform="translate(17.5 4)" fill="#D1D1D1"/>
<rect width="45" height="28.221" transform="translate(17.5 4)" fill="black"/>
<path d="M33.5223 24.6113C33.0969 24.6113 32.7368 24.4597 32.4421 24.1563C32.1474 23.853 32 23.4824 32 23.0446V13.178C32 12.7402 32.1474 12.3697 32.4421 12.0663C32.7368 11.763 33.0969 11.6113 33.5223 11.6113H46.4777C46.9031 11.6113 47.2632 11.763 47.5579 12.0663C47.8526 12.3697 48 12.7402 48 13.178V23.0446C48 23.4824 47.8526 23.853 47.5579 24.1563C47.2632 24.4597 46.9031 24.6113 46.4777 24.6113H33.5223ZM33.5223 23.3113H46.4777C46.5425 23.3113 46.6019 23.2835 46.6558 23.2279C46.7098 23.1724 46.7368 23.1113 46.7368 23.0446V13.178C46.7368 13.1113 46.7098 13.0502 46.6558 12.9947C46.6019 12.9391 46.5425 12.9113 46.4777 12.9113H33.5223C33.4575 12.9113 33.3981 12.9391 33.3442 12.9947C33.2902 13.0502 33.2632 13.1113 33.2632 13.178V23.0446C33.2632 23.1113 33.2902 23.1724 33.3442 23.2279C33.3981 23.2835 33.4575 23.3113 33.5223 23.3113ZM35.5789 21.578H44.4857L41.7166 17.7781L39.3522 20.9447L37.668 18.728L35.5789 21.578Z" fill="white"/>
<rect x="21.5" y="37.1094" width="31" height="1" fill="black"/>
<path d="M51.0697 39.9997L53.4592 37.6102L51.0697 35.2207L50.5 35.7904L52.3198 37.6102L50.5 39.43L51.0697 39.9997Z" fill="#1C1B1F"/>
<rect x="21.5" y="43" width="37" height="1" fill="black"/>
<rect x="21.5" y="48" width="37" height="1" fill="black"/>
</svg>
