<svg width="80" height="57" viewBox="0 0 80 57" fill="none" xmlns="http://www.w3.org/2000/svg">
<rect width="80" height="57" fill="white"/>
<rect width="51" height="29" transform="translate(14.5 25.5)" fill="#D1D1D1"/>
<rect x="20" y="33.5" width="40" height="1" fill="black"/>
<rect x="20" y="37.5" width="40" height="1" fill="black"/>
<rect x="20" y="41.5" width="40" height="1" fill="black"/>
<rect x="23" y="45.5" width="34" height="5" rx="2.5" fill="black"/>
<rect width="40" height="27" transform="translate(20 2.5)" fill="black"/>
<path d="M33.1175 22.5C32.6655 22.5 32.2829 22.3483 31.9697 22.045C31.6566 21.7417 31.5 21.3711 31.5 20.9333V11.0667C31.5 10.6289 31.6566 10.2583 31.9697 9.955C32.2829 9.65167 32.6655 9.5 33.1175 9.5H46.8825C47.3345 9.5 47.7171 9.65167 48.0303 9.955C48.3434 10.2583 48.5 10.6289 48.5 11.0667V20.9333C48.5 21.3711 48.3434 21.7417 48.0303 22.045C47.7171 22.3483 47.3345 22.5 46.8825 22.5H33.1175ZM33.1175 21.2H46.8825C46.9514 21.2 47.0145 21.1722 47.0718 21.1166C47.1292 21.0611 47.1579 21 47.1579 20.9333V11.0667C47.1579 11 47.1292 10.9389 47.0718 10.8834C47.0145 10.8278 46.9514 10.8 46.8825 10.8H33.1175C33.0486 10.8 32.9855 10.8278 32.9282 10.8834C32.8708 10.9389 32.8421 11 32.8421 11.0667V20.9333C32.8421 21 32.8708 21.0611 32.9282 21.1166C32.9855 21.1722 33.0486 21.2 33.1175 21.2ZM35.3026 19.4667H44.766L41.8239 15.6668L39.3117 18.8334L37.5223 16.6166L35.3026 19.4667Z" fill="white"/>
</svg>
