<svg width="80" height="57" viewBox="0 0 80 57" fill="none" xmlns="http://www.w3.org/2000/svg">
<rect width="80" height="57" fill="white"/>
<rect x="15.5" y="3.5" width="49" height="50" fill="#D1D1D1"/>
<rect x="15.5" y="3.5" width="49" height="50" stroke="black" stroke-width="2"/>
<rect width="43" height="23" transform="translate(18.5 6.5)" fill="black"/>
<path d="M33.1175 24.5C32.6655 24.5 32.2829 24.3483 31.9697 24.045C31.6566 23.7417 31.5 23.3711 31.5 22.9333V13.0667C31.5 12.6289 31.6566 12.2583 31.9697 11.955C32.2829 11.6517 32.6655 11.5 33.1175 11.5H46.8825C47.3345 11.5 47.7171 11.6517 48.0303 11.955C48.3434 12.2583 48.5 12.6289 48.5 13.0667V22.9333C48.5 23.3711 48.3434 23.7417 48.0303 24.045C47.7171 24.3483 47.3345 24.5 46.8825 24.5H33.1175ZM33.1175 23.2H46.8825C46.9514 23.2 47.0145 23.1722 47.0718 23.1166C47.1292 23.0611 47.1579 23 47.1579 22.9333V13.0667C47.1579 13 47.1292 12.9389 47.0718 12.8834C47.0145 12.8278 46.9514 12.8 46.8825 12.8H33.1175C33.0486 12.8 32.9855 12.8278 32.9282 12.8834C32.8708 12.9389 32.8421 13 32.8421 13.0667V22.9333C32.8421 23 32.8708 23.0611 32.9282 23.1166C32.9855 23.1722 33.0486 23.2 33.1175 23.2ZM35.3026 21.4667H44.766L41.8239 17.6668L39.3117 20.8334L37.5223 18.6166L35.3026 21.4667Z" fill="white"/>
<rect x="24" y="33.5" width="32" height="1" fill="black"/>
<rect x="24" y="37.5" width="32" height="1" fill="black"/>
<rect x="24" y="41.5" width="32" height="1" fill="black"/>
<rect x="15.5" y="46.5" width="49" height="2" fill="black"/>
</svg>
