<svg width="80" height="57" viewBox="0 0 80 57" fill="none" xmlns="http://www.w3.org/2000/svg">
<rect width="80" height="57" fill="white"/>
<rect width="45" height="27" transform="translate(17.5 4)" fill="black"/>
<path d="M33.1175 23.5C32.6655 23.5 32.2829 23.3483 31.9697 23.045C31.6566 22.7417 31.5 22.3711 31.5 21.9333V12.0667C31.5 11.6289 31.6566 11.2583 31.9697 10.955C32.2829 10.6517 32.6655 10.5 33.1175 10.5H46.8825C47.3345 10.5 47.7171 10.6517 48.0303 10.955C48.3434 11.2583 48.5 11.6289 48.5 12.0667V21.9333C48.5 22.3711 48.3434 22.7417 48.0303 23.045C47.7171 23.3483 47.3345 23.5 46.8825 23.5H33.1175ZM33.1175 22.2H46.8825C46.9514 22.2 47.0145 22.1722 47.0718 22.1166C47.1292 22.0611 47.1579 22 47.1579 21.9333V12.0667C47.1579 12 47.1292 11.9389 47.0718 11.8834C47.0145 11.8278 46.9514 11.8 46.8825 11.8H33.1175C33.0486 11.8 32.9855 11.8278 32.9282 11.8834C32.8708 11.9389 32.8421 12 32.8421 12.0667V21.9333C32.8421 22 32.8708 22.0611 32.9282 22.1166C32.9855 22.1722 33.0486 22.2 33.1175 22.2ZM35.3026 20.4667H44.766L41.8239 16.6668L39.3117 19.8334L37.5223 17.6166L35.3026 20.4667Z" fill="white"/>
<rect width="45" height="22" transform="translate(17.5 31)" fill="#D1D1D1"/>
<rect x="25.5" y="39" width="29" height="1" fill="black"/>
<rect x="25.5" y="43" width="29" height="1" fill="black"/>
<rect x="25.5" y="47" width="29" height="1" fill="black"/>
<rect width="47" height="10" transform="translate(11.5 25)" fill="#757575"/>
<rect x="14.5" y="29.5" width="25" height="1" fill="white"/>
<path d="M38.0697 32.3903L40.4592 30.0008L38.0697 27.6113L37.5 28.181L39.3198 30.0008L37.5 31.8206L38.0697 32.3903Z" fill="white"/>
</svg>
