<svg width="80" height="57" viewBox="0 0 80 57" fill="none" xmlns="http://www.w3.org/2000/svg">
<rect width="80" height="57" fill="white"/>
<rect width="70" height="34" transform="translate(5 11.5)" fill="#D1D1D1"/>
<rect x="9" y="20.1113" width="25" height="1" fill="black"/>
<rect x="9" y="24.1113" width="25" height="1" fill="black"/>
<rect x="9" y="28.1113" width="25" height="1" fill="black"/>
<rect x="9" y="34" width="12" height="1" fill="black"/>
<path d="M19.5697 36.8903L21.9592 34.5008L19.5697 32.1113L19 32.681L20.8198 34.5008L19 36.3206L19.5697 36.8903Z" fill="#1C1B1F"/>
<rect width="37" height="34" transform="translate(38 11.5)" fill="black"/>
<path d="M50.0223 35C49.5969 35 49.2368 34.8483 48.9421 34.545C48.6474 34.2417 48.5 33.8711 48.5 33.4333V23.5667C48.5 23.1289 48.6474 22.7583 48.9421 22.455C49.2368 22.1517 49.5969 22 50.0223 22H62.9777C63.4031 22 63.7632 22.1517 64.0579 22.455C64.3526 22.7583 64.5 23.1289 64.5 23.5667V33.4333C64.5 33.8711 64.3526 34.2417 64.0579 34.545C63.7632 34.8483 63.4031 35 62.9777 35H50.0223ZM50.0223 33.7H62.9777C63.0425 33.7 63.1019 33.6722 63.1558 33.6166C63.2098 33.5611 63.2368 33.5 63.2368 33.4333V23.5667C63.2368 23.5 63.2098 23.4389 63.1558 23.3834C63.1019 23.3278 63.0425 23.3 62.9777 23.3H50.0223C49.9575 23.3 49.8981 23.3278 49.8442 23.3834C49.7902 23.4389 49.7632 23.5 49.7632 23.5667V33.4333C49.7632 33.5 49.7902 33.5611 49.8442 33.6166C49.8981 33.6722 49.9575 33.7 50.0223 33.7ZM52.0789 31.9667H60.9857L58.2166 28.1668L55.8522 31.3334L54.168 29.1166L52.0789 31.9667Z" fill="white"/>
</svg>
