<svg width="80" height="57" viewBox="0 0 80 57" fill="none" xmlns="http://www.w3.org/2000/svg">
<rect width="80" height="57" fill="white"/>
<rect width="70" height="34" transform="translate(5 11.5)" fill="#D1D1D1"/>
<rect x="9" y="20.1106" width="25" height="1" fill="black"/>
<rect x="9" y="24.1106" width="25" height="1" fill="black"/>
<rect x="9" y="28.1106" width="25" height="1" fill="black"/>
<rect x="9" y="34" width="12" height="1" fill="black"/>
<path d="M19.5697 36.8896L21.9592 34.5001L19.5697 32.1106L19 32.6803L20.8198 34.5001L19 36.3199L19.5697 36.8896Z" fill="#1C1B1F"/>
<rect width="33" height="26" transform="translate(38 15.5)" fill="black"/>
<path d="M48.0223 35C47.5969 35 47.2368 34.8483 46.9421 34.545C46.6474 34.2417 46.5 33.8711 46.5 33.4333V23.5667C46.5 23.1289 46.6474 22.7583 46.9421 22.455C47.2368 22.1517 47.5969 22 48.0223 22H60.9777C61.4031 22 61.7632 22.1517 62.0579 22.455C62.3526 22.7583 62.5 23.1289 62.5 23.5667V33.4333C62.5 33.8711 62.3526 34.2417 62.0579 34.545C61.7632 34.8483 61.4031 35 60.9777 35H48.0223ZM48.0223 33.7H60.9777C61.0425 33.7 61.1019 33.6722 61.1558 33.6166C61.2098 33.5611 61.2368 33.5 61.2368 33.4333V23.5667C61.2368 23.5 61.2098 23.4389 61.1558 23.3834C61.1019 23.3278 61.0425 23.3 60.9777 23.3H48.0223C47.9575 23.3 47.8981 23.3278 47.8442 23.3834C47.7902 23.4389 47.7632 23.5 47.7632 23.5667V33.4333C47.7632 33.5 47.7902 33.5611 47.8442 33.6166C47.8981 33.6722 47.9575 33.7 48.0223 33.7ZM50.0789 31.9667H58.9857L56.2166 28.1668L53.8522 31.3334L52.168 29.1166L50.0789 31.9667Z" fill="white"/>
</svg>
