<svg width="80" height="57" viewBox="0 0 80 57" fill="none" xmlns="http://www.w3.org/2000/svg">
<rect width="80" height="57" fill="white"/>
<rect width="69" height="32" transform="translate(5.5 12.5)" fill="#D1D1D1"/>
<rect width="35" height="32" transform="translate(5.5 12.5)" fill="black"/>
<path d="M16.5223 35C16.0969 35 15.7368 34.8483 15.4421 34.545C15.1474 34.2417 15 33.8711 15 33.4333V23.5667C15 23.1289 15.1474 22.7583 15.4421 22.455C15.7368 22.1517 16.0969 22 16.5223 22H29.4777C29.9031 22 30.2632 22.1517 30.5579 22.455C30.8526 22.7583 31 23.1289 31 23.5667V33.4333C31 33.8711 30.8526 34.2417 30.5579 34.545C30.2632 34.8483 29.9031 35 29.4777 35H16.5223ZM16.5223 33.7H29.4777C29.5425 33.7 29.6019 33.6722 29.6558 33.6166C29.7098 33.5611 29.7368 33.5 29.7368 33.4333V23.5667C29.7368 23.5 29.7098 23.4389 29.6558 23.3834C29.6019 23.3278 29.5425 23.3 29.4777 23.3H16.5223C16.4575 23.3 16.3981 23.3278 16.3442 23.3834C16.2902 23.4389 16.2632 23.5 16.2632 23.5667V33.4333C16.2632 33.5 16.2902 33.5611 16.3442 33.6166C16.3981 33.6722 16.4575 33.7 16.5223 33.7ZM18.5789 31.9667H27.4857L24.7166 28.1668L22.3522 31.3334L20.668 29.1166L18.5789 31.9667Z" fill="white"/>
<rect x="45.5" y="22" width="25" height="1" fill="black"/>
<rect x="45.5" y="26" width="25" height="1" fill="black"/>
<rect x="45.5" y="30" width="25" height="1" fill="black"/>
<rect x="45.5" y="34" width="25" height="1" fill="black"/>
</svg>
