<svg width="80" height="57" viewBox="0 0 80 57" fill="none" xmlns="http://www.w3.org/2000/svg">
<rect width="80" height="57" fill="white"/>
<rect width="69" height="32" transform="translate(5.5 12.5)" fill="#D1D1D1"/>
<rect width="38" height="32" transform="translate(5.5 12.5)" fill="black"/>
<path d="M18.0223 35C17.5969 35 17.2368 34.8483 16.9421 34.545C16.6474 34.2417 16.5 33.8711 16.5 33.4333V23.5667C16.5 23.1289 16.6474 22.7583 16.9421 22.455C17.2368 22.1517 17.5969 22 18.0223 22H30.9777C31.4031 22 31.7632 22.1517 32.0579 22.455C32.3526 22.7583 32.5 23.1289 32.5 23.5667V33.4333C32.5 33.8711 32.3526 34.2417 32.0579 34.545C31.7632 34.8483 31.4031 35 30.9777 35H18.0223ZM18.0223 33.7H30.9777C31.0425 33.7 31.1019 33.6722 31.1558 33.6166C31.2098 33.5611 31.2368 33.5 31.2368 33.4333V23.5667C31.2368 23.5 31.2098 23.4389 31.1558 23.3834C31.1019 23.3278 31.0425 23.3 30.9777 23.3H18.0223C17.9575 23.3 17.8981 23.3278 17.8442 23.3834C17.7902 23.4389 17.7632 23.5 17.7632 23.5667V33.4333C17.7632 33.5 17.7902 33.5611 17.8442 33.6166C17.8981 33.6722 17.9575 33.7 18.0223 33.7ZM20.0789 31.9667H28.9857L26.2166 28.1668L23.8522 31.3334L22.168 29.1166L20.0789 31.9667Z" fill="white"/>
<rect width="28" height="21" transform="translate(39.5 18)" fill="white"/>
<rect x="43.5" y="22" width="20" height="1" fill="black"/>
<rect x="43.5" y="26" width="20" height="1" fill="black"/>
<rect x="43.5" y="30" width="20" height="1" fill="black"/>
<rect x="43.5" y="34" width="20" height="1" fill="black"/>
</svg>
