<svg width="80" height="57" viewBox="0 0 80 57" fill="none" xmlns="http://www.w3.org/2000/svg">
<rect width="80" height="57" fill="white"/>
<path d="M6.86932 17V15.8494C6.86932 15.5 6.93111 15.1293 7.05469 14.7372C7.18253 14.3409 7.36577 13.9595 7.6044 13.593C7.8473 13.2223 8.1392 12.9006 8.48011 12.6278L9.2983 13.2926C9.02983 13.6761 8.79545 14.0767 8.59517 14.4943C8.39915 14.9077 8.30114 15.3509 8.30114 15.8239V17H6.86932ZM10.142 17V15.8494C10.142 15.5 10.2038 15.1293 10.3274 14.7372C10.4553 14.3409 10.6385 13.9595 10.8771 13.593C11.12 13.2223 11.4119 12.9006 11.7528 12.6278L12.571 13.2926C12.3026 13.6761 12.0682 14.0767 11.8679 14.4943C11.6719 14.9077 11.5739 15.3509 11.5739 15.8239V17H10.142Z" fill="black"/>
<rect x="17" y="11" width="47" height="1" fill="black"/>
<rect x="17" y="16" width="47" height="1" fill="black"/>
<rect x="17" y="21" width="47" height="1" fill="black"/>
<rect x="17" y="26" width="47" height="1" fill="black"/>
<path d="M70.7102 12.4091V13.5597C70.7102 13.9091 70.6463 14.282 70.5185 14.6783C70.3949 15.0703 70.2116 15.4517 69.9688 15.8224C69.7301 16.1889 69.4403 16.5085 69.0994 16.7812L68.2812 16.1165C68.5497 15.733 68.782 15.3345 68.978 14.9212C69.1783 14.5036 69.2784 14.0582 69.2784 13.5852V12.4091H70.7102ZM73.983 12.4091V13.5597C73.983 13.9091 73.919 14.282 73.7912 14.6783C73.6676 15.0703 73.4844 15.4517 73.2415 15.8224C73.0028 16.1889 72.7131 16.5085 72.3722 16.7812L71.554 16.1165C71.8224 15.733 72.0547 15.3345 72.2507 14.9212C72.451 14.5036 72.5511 14.0582 72.5511 13.5852V12.4091H73.983Z" fill="black"/>
<path d="M10.5025 44.315C11.055 43.8925 11.6725 43.5594 12.355 43.3156C13.0375 43.0719 13.7525 42.95 14.5 42.95C15.2475 42.95 15.9625 43.0719 16.645 43.3156C17.3275 43.5594 17.945 43.8925 18.4975 44.315C18.8767 43.8708 19.1719 43.3671 19.3831 42.8038C19.5944 42.2404 19.7 41.6392 19.7 41C19.7 39.5592 19.1935 38.3323 18.1806 37.3194C17.1677 36.3065 15.9408 35.8 14.5 35.8C13.0592 35.8 11.8323 36.3065 10.8194 37.3194C9.80646 38.3323 9.3 39.5592 9.3 41C9.3 41.6392 9.40563 42.2404 9.61688 42.8038C9.82813 43.3671 10.1233 43.8708 10.5025 44.315ZM14.5 41.65C13.8608 41.65 13.3219 41.4306 12.8831 40.9919C12.4444 40.5531 12.225 40.0142 12.225 39.375C12.225 38.7358 12.4444 38.1969 12.8831 37.7581C13.3219 37.3194 13.8608 37.1 14.5 37.1C15.1392 37.1 15.6781 37.3194 16.1169 37.7581C16.5556 38.1969 16.775 38.7358 16.775 39.375C16.775 40.0142 16.5556 40.5531 16.1169 40.9919C15.6781 41.4306 15.1392 41.65 14.5 41.65ZM14.5 47.5C13.6008 47.5 12.7558 47.3294 11.965 46.9881C11.1742 46.6469 10.4863 46.1838 9.90125 45.5988C9.31625 45.0138 8.85313 44.3258 8.51188 43.535C8.17063 42.7442 8 41.8992 8 41C8 40.1008 8.17063 39.2558 8.51188 38.465C8.85313 37.6742 9.31625 36.9863 9.90125 36.4013C10.4863 35.8162 11.1742 35.3531 11.965 35.0119C12.7558 34.6706 13.6008 34.5 14.5 34.5C15.3992 34.5 16.2442 34.6706 17.035 35.0119C17.8258 35.3531 18.5138 35.8162 19.0988 36.4013C19.6838 36.9863 20.1469 37.6742 20.4881 38.465C20.8294 39.2558 21 40.1008 21 41C21 41.8992 20.8294 42.7442 20.4881 43.535C20.1469 44.3258 19.6838 45.0138 19.0988 45.5988C18.5138 46.1838 17.8258 46.6469 17.035 46.9881C16.2442 47.3294 15.3992 47.5 14.5 47.5Z" fill="#888888"/>
<rect x="25" y="38.5" width="19" height="1" fill="#888888"/>
<rect x="25" y="42.5" width="19" height="1" fill="#888888"/>
</svg>
