<svg width="80" height="57" viewBox="0 0 80 57" fill="none" xmlns="http://www.w3.org/2000/svg">
<rect width="80" height="57" fill="white"/>
<path d="M10.5025 17.815C11.055 17.3925 11.6725 17.0594 12.355 16.8156C13.0375 16.5719 13.7525 16.45 14.5 16.45C15.2475 16.45 15.9625 16.5719 16.645 16.8156C17.3275 17.0594 17.945 17.3925 18.4975 17.815C18.8767 17.3708 19.1719 16.8671 19.3831 16.3038C19.5944 15.7404 19.7 15.1392 19.7 14.5C19.7 13.0592 19.1935 11.8323 18.1806 10.8194C17.1677 9.80646 15.9408 9.3 14.5 9.3C13.0592 9.3 11.8323 9.80646 10.8194 10.8194C9.80646 11.8323 9.3 13.0592 9.3 14.5C9.3 15.1392 9.40562 15.7404 9.61687 16.3038C9.82812 16.8671 10.1233 17.3708 10.5025 17.815ZM14.5 15.15C13.8608 15.15 13.3219 14.9306 12.8831 14.4919C12.4444 14.0531 12.225 13.5142 12.225 12.875C12.225 12.2358 12.4444 11.6969 12.8831 11.2581C13.3219 10.8194 13.8608 10.6 14.5 10.6C15.1392 10.6 15.6781 10.8194 16.1169 11.2581C16.5556 11.6969 16.775 12.2358 16.775 12.875C16.775 13.5142 16.5556 14.0531 16.1169 14.4919C15.6781 14.9306 15.1392 15.15 14.5 15.15ZM14.5 21C13.6008 21 12.7558 20.8294 11.965 20.4881C11.1742 20.1469 10.4862 19.6838 9.90125 19.0988C9.31625 18.5138 8.85313 17.8258 8.51187 17.035C8.17062 16.2442 8 15.3992 8 14.5C8 13.6008 8.17062 12.7558 8.51187 11.965C8.85313 11.1742 9.31625 10.4862 9.90125 9.90125C10.4862 9.31625 11.1742 8.85313 11.965 8.51187C12.7558 8.17062 13.6008 8 14.5 8C15.3992 8 16.2442 8.17062 17.035 8.51187C17.8258 8.85313 18.5138 9.31625 19.0988 9.90125C19.6838 10.4862 20.1469 11.1742 20.4881 11.965C20.8294 12.7558 21 13.6008 21 14.5C21 15.3992 20.8294 16.2442 20.4881 17.035C20.1469 17.8258 19.6838 18.5138 19.0988 19.0988C18.5138 19.6838 17.8258 20.1469 17.035 20.4881C16.2442 20.8294 15.3992 21 14.5 21Z" fill="#888888"/>
<rect x="25" y="12" width="19" height="1" fill="#888888"/>
<rect x="25" y="16" width="19" height="1" fill="#888888"/>
<path d="M6.86932 36V34.8494C6.86932 34.5 6.93111 34.1293 7.05469 33.7372C7.18253 33.3409 7.36577 32.9595 7.6044 32.593C7.8473 32.2223 8.1392 31.9006 8.48011 31.6278L9.2983 32.2926C9.02983 32.6761 8.79545 33.0767 8.59517 33.4943C8.39915 33.9077 8.30114 34.3509 8.30114 34.8239V36H6.86932ZM10.142 36V34.8494C10.142 34.5 10.2038 34.1293 10.3274 33.7372C10.4553 33.3409 10.6385 32.9595 10.8771 32.593C11.12 32.2223 11.4119 31.9006 11.7528 31.6278L12.571 32.2926C12.3026 32.6761 12.0682 33.0767 11.8679 33.4943C11.6719 33.9077 11.5739 34.3509 11.5739 34.8239V36H10.142Z" fill="black"/>
<rect x="17" y="30" width="47" height="1" fill="black"/>
<rect x="17" y="35" width="47" height="1" fill="black"/>
<rect x="17" y="40" width="47" height="1" fill="black"/>
<rect x="17" y="45" width="47" height="1" fill="black"/>
<path d="M70.7102 31.9091V33.0597C70.7102 33.4091 70.6463 33.782 70.5185 34.1783C70.3949 34.5703 70.2116 34.9517 69.9688 35.3224C69.7301 35.6889 69.4403 36.0085 69.0994 36.2812L68.2812 35.6165C68.5497 35.233 68.782 34.8345 68.978 34.4212C69.1783 34.0036 69.2784 33.5582 69.2784 33.0852V31.9091H70.7102ZM73.983 31.9091V33.0597C73.983 33.4091 73.919 33.782 73.7912 34.1783C73.6676 34.5703 73.4844 34.9517 73.2415 35.3224C73.0028 35.6889 72.7131 36.0085 72.3722 36.2812L71.554 35.6165C71.8224 35.233 72.0547 34.8345 72.2507 34.4212C72.451 34.0036 72.5511 33.5582 72.5511 33.0852V31.9091H73.983Z" fill="black"/>
</svg>
